<svg xmlns="http://www.w3.org/2000/svg" xmlns:xlink="http://www.w3.org/1999/xlink" width="40" zoomAndPan="magnify" viewBox="0 0 30 30.000001" height="40" preserveAspectRatio="xMidYMid meet" version="1.0"><defs><clipPath id="7516c54c0e"><path d="M 5 4.117188 L 22 4.117188 L 22 21 L 5 21 Z M 5 4.117188 " clip-rule="nonzero"/></clipPath><clipPath id="87dd955e11"><path d="M 17 17 L 25.652344 17 L 25.652344 25.167969 L 17 25.167969 Z M 17 17 " clip-rule="nonzero"/></clipPath></defs><g clip-path="url(#7516c54c0e)"><path fill="#000000" d="M 13.296875 20.925781 C 12.964844 20.925781 12.640625 20.90625 12.3125 20.867188 C 11.984375 20.828125 11.664062 20.765625 11.34375 20.6875 C 11.023438 20.605469 10.710938 20.507812 10.40625 20.390625 C 10.097656 20.269531 9.796875 20.132812 9.507812 19.980469 C 9.21875 19.824219 8.9375 19.652344 8.667969 19.464844 C 8.402344 19.273438 8.144531 19.070312 7.898438 18.847656 C 7.65625 18.625 7.425781 18.390625 7.210938 18.144531 C 6.996094 17.894531 6.796875 17.632812 6.613281 17.359375 C 6.433594 17.085938 6.265625 16.800781 6.117188 16.507812 C 5.972656 16.214844 5.839844 15.910156 5.730469 15.601562 C 5.621094 15.292969 5.527344 14.976562 5.457031 14.65625 C 5.382812 14.335938 5.332031 14.011719 5.300781 13.683594 C 5.265625 13.355469 5.253906 13.027344 5.261719 12.699219 C 5.269531 12.371094 5.300781 12.042969 5.347656 11.71875 C 5.394531 11.390625 5.464844 11.070312 5.550781 10.753906 C 5.640625 10.4375 5.746094 10.125 5.871094 9.820312 C 6 9.515625 6.144531 9.222656 6.304688 8.9375 C 6.46875 8.648438 6.644531 8.375 6.84375 8.109375 C 7.039062 7.847656 7.25 7.59375 7.476562 7.355469 C 7.703125 7.117188 7.945312 6.894531 8.199219 6.6875 C 8.453125 6.476562 8.71875 6.285156 8.996094 6.109375 C 9.277344 5.933594 9.5625 5.773438 9.859375 5.632812 C 10.160156 5.492188 10.464844 5.371094 10.777344 5.269531 C 11.089844 5.164062 11.40625 5.082031 11.726562 5.019531 C 12.050781 4.953125 12.375 4.910156 12.703125 4.886719 C 13.03125 4.863281 13.363281 4.859375 13.691406 4.875 C 14.019531 4.890625 14.34375 4.925781 14.667969 4.984375 C 14.992188 5.039062 15.3125 5.117188 15.628906 5.210938 C 15.941406 5.308594 16.25 5.421875 16.550781 5.554688 C 16.851562 5.6875 17.144531 5.839844 17.425781 6.011719 C 17.707031 6.179688 17.976562 6.367188 18.238281 6.566406 C 18.496094 6.769531 18.742188 6.988281 18.976562 7.222656 C 19.535156 7.78125 20.003906 8.414062 20.378906 9.113281 C 20.753906 9.8125 21.019531 10.554688 21.175781 11.332031 C 21.328125 12.109375 21.367188 12.894531 21.289062 13.6875 C 21.210938 14.476562 21.023438 15.238281 20.71875 15.972656 C 20.414062 16.707031 20.007812 17.378906 19.503906 17.992188 C 19 18.609375 18.417969 19.136719 17.757812 19.578125 C 17.097656 20.015625 16.386719 20.351562 15.628906 20.582031 C 14.867188 20.8125 14.089844 20.925781 13.296875 20.925781 Z M 13.296875 6.632812 C 12.816406 6.632812 12.339844 6.6875 11.871094 6.792969 C 11.402344 6.902344 10.953125 7.0625 10.519531 7.273438 C 10.089844 7.488281 9.6875 7.746094 9.316406 8.050781 C 8.941406 8.351562 8.609375 8.695312 8.316406 9.078125 C 8.023438 9.457031 7.777344 9.867188 7.578125 10.304688 C 7.378906 10.742188 7.230469 11.199219 7.136719 11.667969 C 7.042969 12.140625 7.003906 12.617188 7.019531 13.097656 C 7.035156 13.578125 7.101562 14.050781 7.226562 14.515625 C 7.351562 14.980469 7.527344 15.421875 7.753906 15.847656 C 7.980469 16.273438 8.25 16.664062 8.566406 17.027344 C 8.882812 17.390625 9.238281 17.710938 9.628906 17.992188 C 10.019531 18.269531 10.4375 18.503906 10.878906 18.6875 C 11.324219 18.871094 11.785156 19.003906 12.257812 19.082031 C 12.730469 19.160156 13.210938 19.183594 13.6875 19.152344 C 14.167969 19.121094 14.640625 19.035156 15.097656 18.898438 C 15.558594 18.757812 15.996094 18.566406 16.414062 18.328125 C 16.832031 18.085938 17.214844 17.800781 17.566406 17.472656 C 17.914062 17.144531 18.226562 16.78125 18.492188 16.378906 C 18.757812 15.980469 18.976562 15.554688 19.148438 15.105469 C 19.316406 14.65625 19.433594 14.191406 19.496094 13.714844 C 19.558594 13.238281 19.566406 12.761719 19.515625 12.28125 C 19.46875 11.804688 19.367188 11.335938 19.214844 10.882812 C 19.058594 10.425781 18.855469 9.996094 18.601562 9.585938 C 18.347656 9.179688 18.046875 8.804688 17.707031 8.464844 C 17.125 7.878906 16.449219 7.429688 15.683594 7.113281 C 14.917969 6.792969 14.125 6.636719 13.296875 6.632812 Z M 13.296875 6.632812 " fill-opacity="1" fill-rule="nonzero"/></g><g clip-path="url(#87dd955e11)"><path fill="#000000" d="M 24.679688 25.167969 C 24.4375 25.167969 24.230469 25.078125 24.058594 24.90625 L 17.726562 18.578125 C 17.554688 18.40625 17.46875 18.199219 17.46875 17.953125 C 17.46875 17.710938 17.554688 17.503906 17.726562 17.332031 C 17.898438 17.15625 18.105469 17.070312 18.351562 17.070312 C 18.59375 17.070312 18.800781 17.15625 18.976562 17.332031 L 25.300781 23.664062 C 25.429688 23.789062 25.507812 23.9375 25.542969 24.113281 C 25.578125 24.289062 25.558594 24.457031 25.492188 24.621094 C 25.425781 24.785156 25.316406 24.917969 25.167969 25.015625 C 25.019531 25.117188 24.859375 25.167969 24.679688 25.167969 Z M 24.679688 25.167969 " fill-opacity="1" fill-rule="nonzero"/></g></svg>