<svg xmlns="http://www.w3.org/2000/svg" xmlns:xlink="http://www.w3.org/1999/xlink" width="40" zoomAndPan="magnify" viewBox="0 0 30 30.000001" height="40" preserveAspectRatio="xMidYMid meet" version="1.0"><defs><clipPath id="319268fac2"><path d="M 4.839844 4.355469 L 25.160156 4.355469 L 25.160156 24.675781 L 4.839844 24.675781 Z M 4.839844 4.355469 " clip-rule="nonzero"/></clipPath></defs><g clip-path="url(#319268fac2)"><path fill="#ffffff" d="M 15 4.355469 C 9.386719 4.355469 4.839844 8.902344 4.839844 14.515625 C 4.839844 20.128906 9.386719 24.675781 15 24.675781 C 20.613281 24.675781 25.160156 20.128906 25.160156 14.515625 C 25.160156 8.902344 20.613281 4.355469 15 4.355469 Z M 19.378906 18.894531 C 16.960938 21.3125 13.042969 21.3125 10.625 18.894531 C 9.417969 17.691406 8.816406 16.113281 8.808594 14.535156 C 8.808594 14 9.234375 13.554688 9.769531 13.546875 C 10.308594 13.542969 10.746094 13.980469 10.746094 14.515625 C 10.746094 15.605469 11.164062 16.695312 11.992188 17.527344 C 13.652344 19.1875 16.351562 19.1875 18.011719 17.527344 C 19.679688 15.859375 19.679688 13.171875 18.011719 11.507812 C 16.351562 9.847656 13.652344 9.847656 11.992188 11.507812 C 12.285156 11.796875 12.132812 12.296875 11.726562 12.378906 L 10.015625 12.722656 C 9.65625 12.792969 9.335938 12.476562 9.40625 12.113281 L 9.75 10.402344 C 9.832031 9.996094 10.332031 9.84375 10.625 10.136719 C 13.042969 7.71875 16.960938 7.71875 19.378906 10.136719 C 21.792969 12.550781 21.792969 16.480469 19.378906 18.894531 Z M 16.957031 14.804688 C 17.300781 15.007812 17.421875 15.449219 17.222656 15.796875 C 17.019531 16.144531 16.578125 16.261719 16.230469 16.0625 L 14.640625 15.144531 C 14.421875 15.019531 14.277344 14.785156 14.277344 14.515625 L 14.277344 11.953125 C 14.277344 11.554688 14.601562 11.230469 15.003906 11.230469 C 15.402344 11.230469 15.726562 11.554688 15.726562 11.953125 L 15.726562 14.097656 Z M 16.957031 14.804688 " fill-opacity="1" fill-rule="nonzero"/></g></svg>