<svg xmlns="http://www.w3.org/2000/svg" xmlns:xlink="http://www.w3.org/1999/xlink" width="40" zoomAndPan="magnify" viewBox="0 0 30 30.000001" height="40" preserveAspectRatio="xMidYMid meet" version="1.0"><defs><clipPath id="9c619eb61d"><path d="M 13 18 L 17 18 L 17 20.964844 L 13 20.964844 Z M 13 18 " clip-rule="nonzero"/></clipPath><clipPath id="84066a2af8"><path d="M 13 7.898438 L 16 7.898438 L 16 10 L 13 10 Z M 13 7.898438 " clip-rule="nonzero"/></clipPath></defs><path fill="#1f1b1b" d="M 10.484375 18.113281 C 11.101562 18.289062 12.738281 18.683594 14.921875 18.683594 C 17.109375 18.683594 18.742188 18.289062 19.359375 18.113281 L 19.359375 17.789062 L 18.242188 15.941406 C 18.214844 15.890625 18.195312 15.835938 18.1875 15.777344 L 17.875 12.871094 C 17.871094 12.859375 17.871094 12.84375 17.871094 12.832031 C 17.871094 11.222656 16.546875 9.917969 14.921875 9.917969 C 13.292969 9.917969 11.972656 11.222656 11.972656 12.832031 C 11.972656 12.84375 11.96875 12.859375 11.96875 12.871094 L 11.652344 15.777344 C 11.648438 15.835938 11.628906 15.890625 11.597656 15.941406 L 10.484375 17.789062 Z M 14.921875 19.480469 C 11.984375 19.480469 10.027344 18.808594 9.945312 18.777344 C 9.785156 18.722656 9.679688 18.574219 9.679688 18.402344 L 9.679688 17.679688 C 9.679688 17.609375 9.699219 17.539062 9.734375 17.476562 L 10.863281 15.609375 L 11.164062 12.808594 C 11.179688 10.773438 12.859375 9.125 14.921875 9.125 C 16.984375 9.125 18.664062 10.773438 18.675781 12.808594 L 18.980469 15.609375 L 20.109375 17.476562 C 20.144531 17.539062 20.164062 17.609375 20.164062 17.679688 L 20.164062 18.402344 C 20.164062 18.574219 20.058594 18.722656 19.894531 18.777344 C 19.8125 18.808594 17.855469 19.480469 14.921875 19.480469 " fill-opacity="1" fill-rule="nonzero"/><g clip-path="url(#9c619eb61d)"><path fill="#1f1b1b" d="M 14.921875 20.964844 C 13.882812 20.964844 13.035156 20.128906 13.035156 19.101562 C 13.035156 18.882812 13.21875 18.707031 13.441406 18.707031 C 13.660156 18.707031 13.84375 18.882812 13.84375 19.101562 C 13.84375 19.691406 14.328125 20.167969 14.921875 20.167969 C 15.515625 20.167969 16 19.691406 16 19.101562 C 16 18.882812 16.179688 18.707031 16.402344 18.707031 C 16.625 18.707031 16.804688 18.882812 16.804688 19.101562 C 16.804688 20.128906 15.960938 20.964844 14.921875 20.964844 " fill-opacity="1" fill-rule="nonzero"/></g><g clip-path="url(#84066a2af8)"><path fill="#1f1b1b" d="M 15.578125 9.734375 C 15.355469 9.734375 15.175781 9.554688 15.175781 9.335938 L 15.175781 8.941406 C 15.175781 8.804688 15.0625 8.691406 14.921875 8.691406 C 14.78125 8.691406 14.667969 8.804688 14.667969 8.941406 L 14.667969 9.335938 C 14.667969 9.554688 14.488281 9.734375 14.265625 9.734375 C 14.042969 9.734375 13.863281 9.554688 13.863281 9.335938 L 13.863281 8.941406 C 13.863281 8.367188 14.339844 7.898438 14.921875 7.898438 C 15.503906 7.898438 15.980469 8.367188 15.980469 8.941406 L 15.980469 9.335938 C 15.980469 9.554688 15.800781 9.734375 15.578125 9.734375 " fill-opacity="1" fill-rule="nonzero"/></g><path fill="#1f1b1b" d="M 15.265625 17.929688 C 12.714844 17.929688 10.617188 17.414062 10.484375 17.382812 C 10.378906 17.355469 10.3125 17.246094 10.339844 17.140625 C 10.367188 17.035156 10.476562 16.96875 10.582031 16.996094 C 10.632812 17.007812 15.40625 18.175781 19.25 17 C 19.355469 16.964844 19.46875 17.023438 19.5 17.128906 C 19.535156 17.234375 19.472656 17.347656 19.367188 17.378906 C 18.019531 17.792969 16.582031 17.929688 15.265625 17.929688 " fill-opacity="1" fill-rule="nonzero"/><path fill="#1f1b1b" d="M 8.679688 14.753906 C 8.617188 14.753906 8.558594 14.726562 8.519531 14.675781 C 8.503906 14.65625 7.117188 12.832031 8.507812 10.546875 C 8.5625 10.449219 8.6875 10.421875 8.78125 10.476562 C 8.878906 10.535156 8.910156 10.65625 8.851562 10.75 C 7.605469 12.800781 8.789062 14.367188 8.839844 14.433594 C 8.90625 14.519531 8.890625 14.644531 8.800781 14.710938 C 8.765625 14.738281 8.722656 14.753906 8.679688 14.753906 " fill-opacity="1" fill-rule="nonzero"/><path fill="#1f1b1b" d="M 7.46875 16.277344 C 7.40625 16.277344 7.347656 16.25 7.308594 16.199219 C 7.285156 16.167969 4.875 13.003906 7.292969 9.023438 C 7.351562 8.929688 7.476562 8.898438 7.570312 8.953125 C 7.667969 9.011719 7.695312 9.132812 7.640625 9.226562 C 5.363281 12.972656 7.53125 15.835938 7.625 15.957031 C 7.695312 16.042969 7.679688 16.167969 7.589844 16.234375 C 7.554688 16.261719 7.511719 16.277344 7.46875 16.277344 " fill-opacity="1" fill-rule="nonzero"/><path fill="#1f1b1b" d="M 21.320312 14.753906 C 21.277344 14.753906 21.234375 14.738281 21.195312 14.710938 C 21.109375 14.644531 21.09375 14.519531 21.160156 14.433594 C 21.210938 14.367188 22.390625 12.796875 21.148438 10.75 C 21.089844 10.65625 21.121094 10.535156 21.214844 10.476562 C 21.3125 10.421875 21.433594 10.449219 21.492188 10.546875 C 22.882812 12.832031 21.492188 14.65625 21.480469 14.675781 C 21.4375 14.726562 21.378906 14.753906 21.320312 14.753906 " fill-opacity="1" fill-rule="nonzero"/><path fill="#1f1b1b" d="M 22.53125 16.277344 C 22.488281 16.277344 22.445312 16.261719 22.410156 16.234375 C 22.320312 16.167969 22.304688 16.042969 22.371094 15.957031 C 22.464844 15.835938 24.636719 12.972656 22.359375 9.226562 C 22.300781 9.132812 22.332031 9.011719 22.429688 8.953125 C 22.523438 8.898438 22.648438 8.929688 22.703125 9.023438 C 25.125 13.003906 22.714844 16.167969 22.691406 16.199219 C 22.652344 16.25 22.589844 16.277344 22.53125 16.277344 " fill-opacity="1" fill-rule="nonzero"/></svg>