<svg xmlns="http://www.w3.org/2000/svg" xmlns:xlink="http://www.w3.org/1999/xlink" width="40" zoomAndPan="magnify" viewBox="0 0 30 30.000001" height="40" preserveAspectRatio="xMidYMid meet" version="1.0"><defs><clipPath id="96e03653ad"><path d="M 4.839844 13 L 21 13 L 21 23.078125 L 4.839844 23.078125 Z M 4.839844 13 " clip-rule="nonzero"/></clipPath><clipPath id="02ec32d676"><path d="M 8 5.660156 L 17 5.660156 L 17 14 L 8 14 Z M 8 5.660156 " clip-rule="nonzero"/></clipPath><clipPath id="bddf291ca7"><path d="M 18 6 L 25.160156 6 L 25.160156 13 L 18 13 Z M 18 6 " clip-rule="nonzero"/></clipPath></defs><g clip-path="url(#96e03653ad)"><path fill="#ffffff" d="M 11.34375 13.742188 C 10.753906 13.859375 10.179688 14.058594 9.625 14.339844 C 8.6875 14.8125 7.835938 15.507812 7.117188 16.382812 C 6.398438 17.261719 5.828125 18.300781 5.441406 19.445312 C 5.160156 20.273438 4.976562 21.148438 4.898438 22.035156 C 4.847656 22.597656 5.316406 23.058594 5.890625 23.058594 L 19.273438 23.058594 C 19.847656 23.058594 20.316406 22.597656 20.269531 22.035156 C 20.1875 21.148438 20.007812 20.273438 19.726562 19.445312 C 19.335938 18.300781 18.765625 17.261719 18.050781 16.382812 C 17.332031 15.507812 16.480469 14.8125 15.542969 14.339844 C 14.890625 14.007812 14.207031 13.792969 13.507812 13.6875 C 13.132812 13.796875 12.734375 13.859375 12.324219 13.859375 C 11.984375 13.859375 11.65625 13.816406 11.34375 13.742188 Z M 11.34375 13.742188 " fill-opacity="1" fill-rule="evenodd"/></g><g clip-path="url(#02ec32d676)"><path fill="#ffffff" d="M 16.480469 9.769531 C 16.480469 10.035156 16.453125 10.304688 16.402344 10.566406 C 16.347656 10.828125 16.269531 11.085938 16.164062 11.332031 C 16.058594 11.582031 15.933594 11.816406 15.78125 12.039062 C 15.628906 12.261719 15.457031 12.46875 15.261719 12.660156 C 15.070312 12.851562 14.859375 13.019531 14.632812 13.167969 C 14.40625 13.316406 14.167969 13.445312 13.914062 13.546875 C 13.664062 13.648438 13.402344 13.726562 13.132812 13.777344 C 12.867188 13.832031 12.597656 13.859375 12.324219 13.859375 C 12.050781 13.859375 11.78125 13.832031 11.511719 13.777344 C 11.246094 13.726562 10.984375 13.648438 10.730469 13.546875 C 10.480469 13.445312 10.238281 13.316406 10.011719 13.167969 C 9.785156 13.019531 9.574219 12.851562 9.382812 12.660156 C 9.191406 12.46875 9.019531 12.261719 8.867188 12.039062 C 8.714844 11.816406 8.585938 11.582031 8.480469 11.332031 C 8.378906 11.085938 8.296875 10.828125 8.246094 10.566406 C 8.191406 10.304688 8.164062 10.035156 8.164062 9.769531 C 8.164062 9.5 8.191406 9.234375 8.246094 8.972656 C 8.296875 8.707031 8.378906 8.453125 8.480469 8.203125 C 8.585938 7.957031 8.714844 7.71875 8.867188 7.496094 C 9.019531 7.273438 9.191406 7.066406 9.382812 6.878906 C 9.574219 6.6875 9.785156 6.519531 10.011719 6.367188 C 10.238281 6.21875 10.480469 6.09375 10.730469 5.992188 C 10.984375 5.886719 11.246094 5.8125 11.511719 5.757812 C 11.78125 5.707031 12.050781 5.679688 12.324219 5.679688 C 12.597656 5.679688 12.867188 5.707031 13.132812 5.757812 C 13.402344 5.8125 13.664062 5.886719 13.914062 5.992188 C 14.167969 6.09375 14.40625 6.21875 14.632812 6.367188 C 14.859375 6.519531 15.070312 6.6875 15.261719 6.878906 C 15.457031 7.066406 15.628906 7.273438 15.78125 7.496094 C 15.933594 7.71875 16.058594 7.957031 16.164062 8.203125 C 16.269531 8.453125 16.347656 8.707031 16.402344 8.972656 C 16.453125 9.234375 16.480469 9.5 16.480469 9.769531 Z M 16.480469 9.769531 " fill-opacity="0.502" fill-rule="nonzero"/></g><g clip-path="url(#bddf291ca7)"><path fill="#ffffff" d="M 18.171875 7.214844 C 18.171875 7 18.34375 6.828125 18.558594 6.828125 L 24.796875 6.828125 C 25.011719 6.828125 25.1875 7 25.1875 7.214844 C 25.1875 7.425781 25.011719 7.597656 24.796875 7.597656 L 18.558594 7.597656 C 18.34375 7.597656 18.171875 7.425781 18.171875 7.214844 Z M 18.171875 9.769531 C 18.171875 9.558594 18.34375 9.386719 18.558594 9.386719 L 24.796875 9.386719 C 25.011719 9.386719 25.1875 9.558594 25.1875 9.769531 C 25.1875 9.980469 25.011719 10.152344 24.796875 10.152344 L 18.558594 10.152344 C 18.34375 10.152344 18.171875 9.980469 18.171875 9.769531 Z M 18.171875 12.324219 C 18.171875 12.113281 18.34375 11.941406 18.558594 11.941406 L 22.90625 11.941406 C 23.121094 11.941406 23.296875 12.113281 23.296875 12.324219 C 23.296875 12.535156 23.121094 12.707031 22.90625 12.707031 L 18.558594 12.707031 C 18.34375 12.707031 18.171875 12.535156 18.171875 12.324219 Z M 18.171875 12.324219 " fill-opacity="1" fill-rule="evenodd"/></g></svg>