<svg xmlns="http://www.w3.org/2000/svg" xmlns:xlink="http://www.w3.org/1999/xlink" width="40" zoomAndPan="magnify" viewBox="0 0 30 30.000001" height="40" preserveAspectRatio="xMidYMid meet" version="1.0"><defs><clipPath id="d63a46e6de"><path d="M 5.890625 5.40625 L 24.035156 5.40625 L 24.035156 23.550781 L 5.890625 23.550781 Z M 5.890625 5.40625 " clip-rule="nonzero"/></clipPath></defs><g clip-path="url(#d63a46e6de)"><path fill="#ffffff" d="M 23.496094 11.925781 L 21.675781 11.734375 C 21.667969 11.714844 21.660156 11.695312 21.652344 11.675781 L 22.800781 10.253906 C 22.996094 10.011719 22.976562 9.664062 22.757812 9.445312 L 20 6.683594 C 19.777344 6.464844 19.429688 6.445312 19.191406 6.640625 L 17.769531 7.792969 C 17.75 7.785156 17.730469 7.777344 17.710938 7.765625 L 17.515625 5.949219 C 17.484375 5.640625 17.226562 5.40625 16.914062 5.40625 L 13.011719 5.40625 C 12.703125 5.40625 12.441406 5.640625 12.410156 5.949219 L 12.21875 7.765625 C 12.199219 7.773438 12.179688 7.785156 12.160156 7.792969 L 10.738281 6.640625 C 10.496094 6.445312 10.148438 6.464844 9.929688 6.683594 L 7.167969 9.445312 C 6.949219 9.664062 6.929688 10.011719 7.125 10.253906 L 8.277344 11.675781 C 8.269531 11.695312 8.257812 11.714844 8.25 11.734375 L 6.433594 11.925781 C 6.125 11.957031 5.890625 12.21875 5.890625 12.527344 L 5.890625 16.433594 C 5.890625 16.742188 6.125 17 6.433594 17.035156 L 8.25 17.226562 C 8.257812 17.246094 8.269531 17.265625 8.277344 17.285156 L 7.125 18.707031 C 6.929688 18.945312 6.949219 19.296875 7.167969 19.515625 L 9.929688 22.277344 C 10.148438 22.496094 10.496094 22.511719 10.738281 22.316406 L 12.160156 21.167969 C 12.179688 21.175781 12.199219 21.183594 12.21875 21.191406 L 12.410156 23.011719 C 12.441406 23.320312 12.703125 23.550781 13.011719 23.550781 L 16.914062 23.550781 C 17.226562 23.550781 17.484375 23.320312 17.515625 23.011719 L 17.710938 21.191406 C 17.730469 21.183594 17.75 21.175781 17.769531 21.167969 L 19.191406 22.316406 C 19.429688 22.511719 19.777344 22.496094 20 22.277344 L 22.757812 19.515625 C 22.976562 19.296875 22.996094 18.945312 22.800781 18.707031 L 21.652344 17.285156 C 21.660156 17.265625 21.667969 17.246094 21.675781 17.226562 L 23.496094 17.035156 C 23.800781 17 24.035156 16.742188 24.035156 16.433594 L 24.035156 12.527344 C 24.035156 12.21875 23.800781 11.957031 23.496094 11.925781 Z M 22.828125 15.886719 L 21.179688 16.0625 C 20.945312 16.085938 20.75 16.242188 20.671875 16.464844 C 20.597656 16.683594 20.503906 16.898438 20.402344 17.109375 C 20.300781 17.320312 20.328125 17.574219 20.476562 17.753906 L 21.519531 19.042969 L 19.527344 21.035156 L 18.238281 19.992188 C 18.054688 19.84375 17.804688 19.816406 17.59375 19.917969 C 17.378906 20.023438 17.164062 20.113281 16.949219 20.1875 C 16.726562 20.261719 16.570312 20.460938 16.546875 20.695312 L 16.371094 22.34375 L 13.554688 22.34375 L 13.382812 20.695312 C 13.355469 20.460938 13.199219 20.261719 12.976562 20.1875 C 12.761719 20.113281 12.546875 20.023438 12.332031 19.917969 C 12.121094 19.816406 11.871094 19.84375 11.6875 19.992188 L 10.398438 21.035156 L 8.410156 19.042969 L 9.449219 17.753906 C 9.597656 17.574219 9.625 17.320312 9.523438 17.109375 C 9.421875 16.898438 9.332031 16.683594 9.253906 16.464844 C 9.179688 16.242188 8.980469 16.085938 8.75 16.0625 L 7.101562 15.886719 L 7.101562 13.070312 L 8.75 12.898438 C 8.980469 12.875 9.179688 12.714844 9.253906 12.496094 C 9.332031 12.277344 9.421875 12.058594 9.523438 11.847656 C 9.625 11.636719 9.597656 11.386719 9.449219 11.203125 L 8.410156 9.914062 L 10.398438 7.925781 L 11.6875 8.964844 C 11.871094 9.113281 12.121094 9.144531 12.332031 9.039062 C 12.546875 8.9375 12.761719 8.847656 12.976562 8.773438 C 13.199219 8.695312 13.355469 8.5 13.382812 8.265625 L 13.554688 6.617188 L 16.371094 6.617188 L 16.546875 8.265625 C 16.570312 8.5 16.726562 8.695312 16.949219 8.773438 C 17.164062 8.847656 17.378906 8.9375 17.59375 9.039062 C 17.804688 9.144531 18.054688 9.113281 18.238281 8.964844 L 19.527344 7.925781 L 21.519531 9.914062 L 20.476562 11.203125 C 20.328125 11.386719 20.300781 11.636719 20.402344 11.847656 C 20.503906 12.058594 20.597656 12.277344 20.671875 12.496094 C 20.75 12.714844 20.945312 12.875 21.179688 12.898438 L 22.828125 13.070312 Z M 22.828125 15.886719 " fill-opacity="1" fill-rule="nonzero"/></g><path fill="#ffffff" d="M 14.964844 9.539062 C 12.238281 9.539062 10.023438 11.753906 10.023438 14.480469 C 10.023438 17.203125 12.238281 19.421875 14.964844 19.421875 C 17.6875 19.421875 19.90625 17.203125 19.90625 14.480469 C 19.90625 11.753906 17.6875 9.539062 14.964844 9.539062 Z M 14.964844 18.210938 C 12.90625 18.210938 11.230469 16.539062 11.230469 14.480469 C 11.230469 12.421875 12.90625 10.746094 14.964844 10.746094 C 17.019531 10.746094 18.695312 12.421875 18.695312 14.480469 C 18.695312 16.539062 17.019531 18.210938 14.964844 18.210938 Z M 14.964844 18.210938 " fill-opacity="1" fill-rule="nonzero"/></svg>