<svg xmlns="http://www.w3.org/2000/svg" xmlns:xlink="http://www.w3.org/1999/xlink" width="40" zoomAndPan="magnify" viewBox="0 0 30 30.000001" height="40" preserveAspectRatio="xMidYMid meet" version="1.0"><defs><clipPath id="da4567c930"><path d="M 0.484375 0 L 29.515625 0 L 29.515625 29.03125 L 0.484375 29.03125 Z M 0.484375 0 " clip-rule="nonzero"/></clipPath><clipPath id="96fff0db4c"><path d="M 6.316406 4.746094 L 23.734375 4.746094 L 23.734375 24.34375 L 6.316406 24.34375 Z M 6.316406 4.746094 " clip-rule="nonzero"/></clipPath></defs><g clip-path="url(#da4567c930)"><path fill="#ffffff" d="M 0.484375 0 L 29.515625 0 L 29.515625 29.03125 L 0.484375 29.03125 Z M 0.484375 0 " fill-opacity="1" fill-rule="nonzero"/><path fill="#ffffff" d="M 0.484375 0 L 29.515625 0 L 29.515625 29.03125 L 0.484375 29.03125 Z M 0.484375 0 " fill-opacity="1" fill-rule="nonzero"/></g><g clip-path="url(#96fff0db4c)"><path fill="#000000" d="M 11.027344 24.273438 C 11.167969 24.335938 11.300781 24.316406 11.417969 24.210938 L 15.90625 20.199219 L 22.273438 20.199219 C 22.464844 20.199219 22.648438 20.160156 22.828125 20.085938 C 23.007812 20.015625 23.164062 19.910156 23.300781 19.773438 C 23.4375 19.636719 23.539062 19.480469 23.613281 19.300781 C 23.6875 19.125 23.726562 18.9375 23.726562 18.746094 L 23.726562 6.183594 C 23.726562 5.992188 23.6875 5.808594 23.613281 5.628906 C 23.539062 5.453125 23.4375 5.296875 23.300781 5.160156 C 23.164062 5.023438 23.007812 4.917969 22.828125 4.84375 C 22.648438 4.769531 22.464844 4.734375 22.273438 4.734375 L 7.8125 4.734375 C 7.621094 4.734375 7.433594 4.769531 7.257812 4.84375 C 7.078125 4.917969 6.921875 5.023438 6.785156 5.160156 C 6.648438 5.296875 6.542969 5.453125 6.46875 5.628906 C 6.398438 5.808594 6.359375 5.992188 6.359375 6.183594 L 6.359375 18.746094 C 6.359375 18.941406 6.398438 19.125 6.46875 19.300781 C 6.542969 19.480469 6.648438 19.636719 6.785156 19.773438 C 6.921875 19.910156 7.078125 20.015625 7.257812 20.089844 C 7.433594 20.160156 7.621094 20.199219 7.8125 20.199219 L 10.8125 20.199219 L 10.8125 23.941406 C 10.8125 24.097656 10.882812 24.207031 11.027344 24.273438 Z M 7.8125 19.472656 C 7.613281 19.472656 7.441406 19.402344 7.296875 19.257812 C 7.15625 19.117188 7.085938 18.945312 7.085938 18.746094 L 7.085938 6.183594 C 7.085938 5.984375 7.15625 5.8125 7.296875 5.671875 C 7.441406 5.53125 7.613281 5.460938 7.8125 5.460938 L 22.273438 5.460938 C 22.472656 5.460938 22.644531 5.53125 22.785156 5.671875 C 22.925781 5.8125 23 5.984375 23 6.183594 L 23 18.746094 C 23 18.949219 22.925781 19.117188 22.785156 19.261719 C 22.644531 19.402344 22.472656 19.472656 22.273438 19.472656 L 15.769531 19.472656 C 15.675781 19.472656 15.59375 19.503906 15.527344 19.566406 L 11.539062 23.128906 L 11.539062 19.835938 C 11.539062 19.734375 11.503906 19.648438 11.429688 19.578125 C 11.359375 19.507812 11.273438 19.472656 11.175781 19.472656 Z M 7.8125 19.472656 " fill-opacity="1" fill-rule="nonzero"/></g><path fill="#000000" d="M 12.191406 15.855469 C 12.164062 16.003906 12.214844 16.125 12.335938 16.210938 C 12.457031 16.300781 12.585938 16.308594 12.71875 16.238281 L 14.988281 15.046875 L 17.261719 16.238281 C 17.394531 16.308594 17.523438 16.300781 17.644531 16.210938 C 17.765625 16.125 17.8125 16.003906 17.789062 15.855469 L 17.355469 13.328125 L 19.191406 11.539062 C 19.300781 11.433594 19.328125 11.308594 19.285156 11.167969 C 19.238281 11.023438 19.140625 10.941406 18.992188 10.917969 L 16.449219 10.550781 L 15.316406 8.25 C 15.25 8.113281 15.140625 8.046875 14.988281 8.046875 C 14.839844 8.046875 14.730469 8.113281 14.664062 8.25 L 13.527344 10.550781 L 10.988281 10.917969 C 10.839844 10.941406 10.742188 11.023438 10.695312 11.164062 C 10.648438 11.308594 10.679688 11.433594 10.789062 11.539062 L 12.625 13.328125 Z M 11.820312 11.53125 L 13.820312 11.242188 C 13.945312 11.222656 14.039062 11.15625 14.09375 11.042969 L 14.988281 9.230469 L 15.886719 11.042969 C 15.941406 11.15625 16.03125 11.222656 16.160156 11.242188 L 18.160156 11.53125 L 16.710938 12.941406 C 16.621094 13.03125 16.585938 13.136719 16.609375 13.261719 L 16.949219 15.253906 L 15.160156 14.3125 C 15.046875 14.253906 14.933594 14.253906 14.820312 14.3125 L 13.03125 15.253906 L 13.371094 13.261719 C 13.394531 13.136719 13.359375 13.03125 13.269531 12.941406 Z M 11.820312 11.53125 " fill-opacity="1" fill-rule="nonzero"/></svg>