<svg xmlns="http://www.w3.org/2000/svg" xmlns:xlink="http://www.w3.org/1999/xlink" width="40" zoomAndPan="magnify" viewBox="0 0 30 30.000001" height="40" preserveAspectRatio="xMidYMid meet" version="1.0"><defs><clipPath id="8a1cfa2dcb"><path d="M 0.484375 0 L 29.515625 0 L 29.515625 29.03125 L 0.484375 29.03125 Z M 0.484375 0 " clip-rule="nonzero"/></clipPath><clipPath id="60756b3276"><path d="M 3.386719 7.546875 L 26.613281 7.546875 L 26.613281 21.339844 L 3.386719 21.339844 Z M 3.386719 7.546875 " clip-rule="nonzero"/></clipPath></defs><g clip-path="url(#8a1cfa2dcb)"><path fill="#ffffff" d="M 0.484375 0 L 29.515625 0 L 29.515625 29.03125 L 0.484375 29.03125 Z M 0.484375 0 " fill-opacity="1" fill-rule="nonzero"/><path fill="#ffffff" d="M 0.484375 0 L 29.515625 0 L 29.515625 29.03125 L 0.484375 29.03125 Z M 0.484375 0 " fill-opacity="1" fill-rule="nonzero"/></g><g clip-path="url(#60756b3276)"><path fill="#000000" d="M 15.039062 7.566406 C 12.496094 7.566406 10.140625 8.59375 8.234375 9.847656 C 5.441406 11.679688 3.628906 13.972656 3.628906 13.972656 C 3.410156 14.25 3.410156 14.636719 3.628906 14.914062 C 3.628906 14.914062 5.441406 17.207031 8.234375 19.042969 C 10.140625 20.292969 12.496094 21.320312 15.039062 21.320312 C 17.582031 21.320312 19.9375 20.292969 21.84375 19.042969 C 24.636719 17.207031 26.449219 14.914062 26.449219 14.914062 C 26.667969 14.636719 26.667969 14.25 26.449219 13.972656 C 26.449219 13.972656 24.636719 11.679688 21.84375 9.847656 C 19.9375 8.59375 17.582031 7.566406 15.039062 7.566406 Z M 15.039062 9.09375 C 17.265625 9.09375 19.320312 10.023438 20.988281 11.117188 C 22.816406 12.316406 24.1875 13.726562 24.828125 14.445312 C 24.1875 15.160156 22.816406 16.570312 20.988281 17.769531 C 19.320312 18.863281 17.265625 19.792969 15.039062 19.792969 C 12.8125 19.792969 10.757812 18.863281 9.085938 17.769531 C 7.261719 16.570312 5.890625 15.160156 5.246094 14.445312 C 5.890625 13.726562 7.261719 12.316406 9.085938 11.117188 C 10.757812 10.023438 12.8125 9.09375 15.039062 9.09375 Z M 15.039062 9.859375 C 12.484375 9.859375 10.410156 11.914062 10.410156 14.445312 C 10.410156 16.972656 12.484375 19.027344 15.039062 19.027344 C 17.59375 19.027344 19.667969 16.972656 19.667969 14.445312 C 19.667969 11.914062 17.59375 9.859375 15.039062 9.859375 Z M 15.039062 11.386719 C 16.742188 11.386719 18.125 12.757812 18.125 14.445312 C 18.125 16.128906 16.742188 17.5 15.039062 17.5 C 13.335938 17.5 11.953125 16.128906 11.953125 14.445312 C 11.953125 12.757812 13.335938 11.386719 15.039062 11.386719 Z M 15.039062 13.679688 C 15.464844 13.679688 15.808594 14.023438 15.808594 14.445312 C 15.808594 14.867188 16.15625 15.207031 16.582031 15.207031 C 17.007812 15.207031 17.351562 14.867188 17.351562 14.445312 C 17.351562 13.179688 16.316406 12.152344 15.039062 12.152344 C 14.613281 12.152344 14.265625 12.492188 14.265625 12.914062 C 14.265625 13.335938 14.613281 13.679688 15.039062 13.679688 Z M 15.039062 13.679688 " fill-opacity="1" fill-rule="evenodd"/></g></svg>