<svg xmlns="http://www.w3.org/2000/svg" xmlns:xlink="http://www.w3.org/1999/xlink" width="40" zoomAndPan="magnify" viewBox="0 0 30 30.000001" height="40" preserveAspectRatio="xMidYMid meet" version="1.0"><defs><clipPath id="aef91eee36"><path d="M 0.484375 0 L 29.515625 0 L 29.515625 29.03125 L 0.484375 29.03125 Z M 0.484375 0 " clip-rule="nonzero"/></clipPath><clipPath id="9f51f9f2df"><path d="M 7.28125 4.355469 L 22.523438 4.355469 L 22.523438 24.675781 L 7.28125 24.675781 Z M 7.28125 4.355469 " clip-rule="nonzero"/></clipPath></defs><g clip-path="url(#aef91eee36)"><path fill="#ffffff" d="M 0.484375 0 L 29.515625 0 L 29.515625 29.03125 L 0.484375 29.03125 Z M 0.484375 0 " fill-opacity="1" fill-rule="nonzero"/><path fill="#ffffff" d="M 0.484375 0 L 29.515625 0 L 29.515625 29.03125 L 0.484375 29.03125 Z M 0.484375 0 " fill-opacity="1" fill-rule="nonzero"/></g><g clip-path="url(#9f51f9f2df)"><path fill="#ffffff" d="M 13.09375 19.042969 C 13.5 19.246094 13.871094 19.511719 14.1875 19.835938 C 14.472656 20.121094 14.714844 20.453125 14.90625 20.8125 C 15.09375 20.453125 15.335938 20.121094 15.621094 19.835938 C 15.9375 19.511719 16.308594 19.246094 16.714844 19.042969 C 16.542969 18.925781 16.382812 18.792969 16.238281 18.644531 C 15.664062 18.066406 15.308594 17.261719 15.308594 16.378906 C 15.308594 15.492188 15.664062 14.691406 16.238281 14.113281 C 16.6875 13.65625 17.273438 13.335938 17.929688 13.21875 C 17.789062 12.59375 17.464844 12.035156 17.011719 11.609375 C 16.460938 11.085938 15.714844 10.765625 14.902344 10.765625 C 14.089844 10.765625 13.347656 11.085938 12.792969 11.609375 C 12.34375 12.035156 12.015625 12.59375 11.875 13.21875 C 12.53125 13.335938 13.121094 13.65625 13.570312 14.113281 C 14.144531 14.691406 14.496094 15.492188 14.496094 16.378906 C 14.496094 17.265625 14.144531 18.066406 13.570312 18.644531 C 13.425781 18.792969 13.265625 18.925781 13.089844 19.042969 Z M 14.90625 9.8125 C 15.519531 9.8125 16.074219 9.5625 16.480469 9.152344 C 16.882812 8.746094 17.132812 8.183594 17.132812 7.558594 C 17.132812 6.9375 16.882812 6.375 16.480469 5.964844 C 16.078125 5.558594 15.519531 5.304688 14.90625 5.304688 C 14.289062 5.304688 13.734375 5.558594 13.332031 5.964844 C 12.925781 6.371094 12.679688 6.9375 12.679688 7.558594 C 12.679688 8.179688 12.925781 8.746094 13.332031 9.152344 C 13.734375 9.5625 14.289062 9.8125 14.90625 9.8125 Z M 17.144531 9.828125 C 16.996094 9.976562 16.835938 10.109375 16.664062 10.226562 C 17.027344 10.40625 17.359375 10.636719 17.652344 10.914062 C 18.285156 11.511719 18.726562 12.304688 18.882812 13.199219 C 19.59375 13.292969 20.230469 13.625 20.714844 14.113281 C 21.289062 14.691406 21.640625 15.496094 21.640625 16.378906 C 21.640625 17.265625 21.289062 18.066406 20.714844 18.648438 C 20.566406 18.792969 20.410156 18.925781 20.234375 19.042969 C 20.644531 19.246094 21.011719 19.515625 21.332031 19.835938 C 22.0625 20.578125 22.515625 21.601562 22.515625 22.726562 L 22.515625 24.195312 C 22.515625 24.457031 22.308594 24.671875 22.046875 24.671875 L 7.761719 24.671875 C 7.5 24.671875 7.289062 24.460938 7.289062 24.195312 L 7.289062 22.726562 C 7.289062 21.601562 7.742188 20.578125 8.476562 19.835938 C 8.792969 19.515625 9.164062 19.246094 9.570312 19.042969 C 9.398438 18.925781 9.238281 18.792969 9.09375 18.648438 C 8.519531 18.066406 8.164062 17.265625 8.164062 16.378906 C 8.164062 15.496094 8.519531 14.691406 9.09375 14.113281 C 9.574219 13.625 10.214844 13.292969 10.921875 13.199219 C 11.078125 12.304688 11.523438 11.511719 12.15625 10.914062 C 12.445312 10.636719 12.78125 10.40625 13.144531 10.226562 C 12.96875 10.109375 12.8125 9.976562 12.664062 9.828125 C 12.089844 9.246094 11.734375 8.445312 11.734375 7.558594 C 11.734375 6.675781 12.089844 5.875 12.664062 5.292969 C 13.238281 4.710938 14.027344 4.355469 14.902344 4.355469 C 15.777344 4.355469 16.570312 4.710938 17.140625 5.292969 C 17.714844 5.875 18.070312 6.675781 18.070312 7.558594 C 18.070312 8.445312 17.714844 9.246094 17.140625 9.828125 Z M 18.476562 18.632812 C 19.089844 18.632812 19.648438 18.382812 20.050781 17.972656 C 20.453125 17.566406 20.703125 17 20.703125 16.378906 C 20.703125 15.757812 20.453125 15.191406 20.050781 14.785156 C 19.648438 14.375 19.089844 14.125 18.476562 14.125 C 17.863281 14.125 17.304688 14.375 16.902344 14.785156 C 16.5 15.191406 16.25 15.753906 16.25 16.378906 C 16.25 17 16.5 17.566406 16.902344 17.972656 C 17.304688 18.382812 17.859375 18.632812 18.476562 18.632812 Z M 15.375 22.726562 L 15.375 23.71875 L 21.578125 23.71875 L 21.578125 22.726562 C 21.578125 21.863281 21.230469 21.078125 20.667969 20.507812 C 20.105469 19.941406 19.328125 19.585938 18.476562 19.585938 C 17.625 19.585938 16.847656 19.941406 16.285156 20.507812 C 15.722656 21.078125 15.375 21.863281 15.375 22.726562 Z M 11.332031 18.632812 C 11.945312 18.632812 12.503906 18.382812 12.90625 17.972656 C 13.308594 17.566406 13.558594 17 13.558594 16.378906 C 13.558594 15.757812 13.308594 15.191406 12.90625 14.785156 C 12.503906 14.375 11.949219 14.125 11.332031 14.125 C 10.71875 14.125 10.160156 14.375 9.757812 14.785156 C 9.355469 15.191406 9.105469 15.753906 9.105469 16.378906 C 9.105469 17 9.355469 17.566406 9.757812 17.972656 C 10.160156 18.382812 10.71875 18.632812 11.332031 18.632812 Z M 13.523438 20.507812 C 12.960938 19.9375 12.1875 19.585938 11.332031 19.585938 C 10.480469 19.585938 9.703125 19.9375 9.144531 20.507812 C 8.582031 21.078125 8.230469 21.863281 8.230469 22.726562 L 8.230469 23.71875 L 14.433594 23.71875 L 14.433594 22.726562 C 14.433594 21.863281 14.085938 21.078125 13.523438 20.507812 Z M 13.523438 20.507812 " fill-opacity="1" fill-rule="nonzero"/></g></svg>