<svg xmlns="http://www.w3.org/2000/svg" xmlns:xlink="http://www.w3.org/1999/xlink" width="40" zoomAndPan="magnify" viewBox="0 0 30 30.000001" height="40" preserveAspectRatio="xMidYMid meet" version="1.0"><defs><clipPath id="bc5dbc2803"><path d="M 0.484375 0 L 29.515625 0 L 29.515625 29.03125 L 0.484375 29.03125 Z M 0.484375 0 " clip-rule="nonzero"/></clipPath><clipPath id="1155f3ce7f"><path d="M 6.199219 4.355469 L 23.617188 4.355469 L 23.617188 24.675781 L 6.199219 24.675781 Z M 6.199219 4.355469 " clip-rule="nonzero"/></clipPath></defs><g clip-path="url(#bc5dbc2803)"><path fill="#ffffff" d="M 0.484375 0 L 29.515625 0 L 29.515625 174.195312 L 0.484375 174.195312 Z M 0.484375 0 " fill-opacity="1" fill-rule="nonzero"/><path fill="#ffffff" d="M 0.484375 0 L 29.515625 0 L 29.515625 29.03125 L 0.484375 29.03125 Z M 0.484375 0 " fill-opacity="1" fill-rule="nonzero"/><path fill="#ffffff" d="M 0.484375 0 L 29.515625 0 L 29.515625 29.03125 L 0.484375 29.03125 Z M 0.484375 0 " fill-opacity="1" fill-rule="nonzero"/></g><g clip-path="url(#1155f3ce7f)"><path fill="#ffffff" d="M 15.578125 19.253906 C 15.578125 18.878906 15.875 18.578125 16.25 18.578125 L 22.945312 18.578125 C 23.316406 18.578125 23.617188 18.878906 23.617188 19.253906 L 23.617188 23.996094 C 23.617188 24.367188 23.320312 24.671875 22.945312 24.671875 L 16.25 24.671875 C 15.878906 24.671875 15.578125 24.367188 15.578125 23.996094 Z M 15.578125 5.035156 C 15.578125 4.664062 15.875 4.363281 16.25 4.363281 L 22.945312 4.363281 C 23.316406 4.363281 23.617188 4.667969 23.617188 5.035156 L 23.617188 16.550781 C 23.617188 16.921875 23.320312 17.222656 22.945312 17.222656 L 16.25 17.222656 C 15.878906 17.222656 15.578125 16.917969 15.578125 16.550781 Z M 6.199219 12.480469 C 6.199219 12.109375 6.492188 11.808594 6.871094 11.808594 L 13.566406 11.808594 C 13.9375 11.808594 14.238281 12.113281 14.238281 12.480469 L 14.238281 23.996094 C 14.238281 24.367188 13.941406 24.671875 13.566406 24.671875 L 6.871094 24.671875 C 6.5 24.671875 6.199219 24.363281 6.199219 23.996094 Z M 6.199219 5.039062 C 6.199219 4.664062 6.492188 4.363281 6.871094 4.363281 L 13.566406 4.363281 C 13.9375 4.363281 14.238281 4.664062 14.238281 5.039062 L 14.238281 9.777344 C 14.238281 10.152344 13.941406 10.453125 13.566406 10.453125 L 6.871094 10.453125 C 6.5 10.453125 6.199219 10.152344 6.199219 9.777344 Z M 6.199219 5.039062 " fill-opacity="1" fill-rule="evenodd"/></g></svg>