<svg xmlns="http://www.w3.org/2000/svg" xmlns:xlink="http://www.w3.org/1999/xlink" width="40" zoomAndPan="magnify" viewBox="0 0 30 30.000001" height="40" preserveAspectRatio="xMidYMid meet" version="1.0"><defs><clipPath id="6ecb55538e"><path d="M 0.484375 0 L 29.515625 0 L 29.515625 29.03125 L 0.484375 29.03125 Z M 0.484375 0 " clip-rule="nonzero"/></clipPath><clipPath id="401fee778f"><path d="M 3.089844 4.394531 L 27.042969 4.394531 L 27.042969 24.714844 L 3.089844 24.714844 Z M 3.089844 4.394531 " clip-rule="nonzero"/></clipPath></defs><g clip-path="url(#6ecb55538e)"><path fill="#ffffff" d="M 0.484375 0 L 29.515625 0 L 29.515625 29.03125 L 0.484375 29.03125 Z M 0.484375 0 " fill-opacity="1" fill-rule="nonzero"/><path fill="#ffffff" d="M 0.484375 0 L 29.515625 0 L 29.515625 29.03125 L 0.484375 29.03125 Z M 0.484375 0 " fill-opacity="1" fill-rule="nonzero"/></g><g clip-path="url(#401fee778f)"><path fill="#ffffff" d="M 12.671875 24.714844 L 12.671875 17.542969 L 17.460938 17.542969 L 17.460938 24.714844 L 23.449219 24.714844 L 23.449219 15.152344 L 27.042969 15.152344 L 15.066406 4.394531 L 3.089844 15.152344 L 6.683594 15.152344 L 6.683594 24.714844 Z M 12.671875 24.714844 " fill-opacity="1" fill-rule="nonzero"/></g></svg>