<svg xmlns="http://www.w3.org/2000/svg" xmlns:xlink="http://www.w3.org/1999/xlink" width="40" zoomAndPan="magnify" viewBox="0 0 30 30.000001" height="40" preserveAspectRatio="xMidYMid meet" version="1.0"><defs><clipPath id="b165412816"><path d="M 0.484375 0 L 29.515625 0 L 29.515625 29.03125 L 0.484375 29.03125 Z M 0.484375 0 " clip-rule="nonzero"/></clipPath><clipPath id="9008d7de89"><path d="M 4.28125 5.164062 L 25.714844 5.164062 L 25.714844 24 L 4.28125 24 Z M 4.28125 5.164062 " clip-rule="nonzero"/></clipPath></defs><g clip-path="url(#b165412816)"><path fill="#ffffff" d="M 0.484375 0 L 29.515625 0 L 29.515625 29.03125 L 0.484375 29.03125 Z M 0.484375 0 " fill-opacity="1" fill-rule="nonzero"/><path fill="#ffffff" d="M 0.484375 0 L 29.515625 0 L 29.515625 29.03125 L 0.484375 29.03125 Z M 0.484375 0 " fill-opacity="1" fill-rule="nonzero"/></g><g clip-path="url(#9008d7de89)"><path fill="#ffffff" d="M 7.164062 5.230469 L 23.207031 5.230469 C 24.78125 5.230469 26.054688 6.535156 26.054688 8.1875 L 26.054688 17.671875 C 26.054688 19.285156 24.78125 20.59375 23.207031 20.59375 L 23.09375 20.59375 C 22.492188 20.59375 21.96875 20.898438 21.632812 21.398438 L 20.433594 23.320312 C 20.171875 23.703125 19.757812 23.972656 19.269531 23.972656 C 18.785156 23.972656 18.371094 23.742188 18.109375 23.320312 L 17.210938 21.859375 C 16.722656 21.054688 15.859375 20.59375 14.960938 20.59375 L 7.128906 20.59375 C 5.554688 20.59375 4.28125 19.285156 4.28125 17.671875 L 4.28125 8.1875 C 4.316406 6.535156 5.59375 5.230469 7.164062 5.230469 Z M 7.164062 5.230469 " fill-opacity="1" fill-rule="nonzero"/></g></svg>