<svg xmlns="http://www.w3.org/2000/svg" xmlns:xlink="http://www.w3.org/1999/xlink" width="40" zoomAndPan="magnify" viewBox="0 0 30 30.000001" height="40" preserveAspectRatio="xMidYMid meet" version="1.0"><defs><clipPath id="738e9f47a7"><path d="M 0.484375 0 L 29.515625 0 L 29.515625 29.03125 L 0.484375 29.03125 Z M 0.484375 0 " clip-rule="nonzero"/></clipPath><clipPath id="4ecf5f0c25"><path d="M 3.835938 4.707031 L 26.335938 4.707031 L 26.335938 24.304688 L 3.835938 24.304688 Z M 3.835938 4.707031 " clip-rule="nonzero"/></clipPath></defs><g clip-path="url(#738e9f47a7)"><path fill="#ffffff" d="M 0.484375 0 L 29.515625 0 L 29.515625 29.03125 L 0.484375 29.03125 Z M 0.484375 0 " fill-opacity="1" fill-rule="nonzero"/><path fill="#ffffff" d="M 0.484375 0 L 29.515625 0 L 29.515625 29.03125 L 0.484375 29.03125 Z M 0.484375 0 " fill-opacity="1" fill-rule="nonzero"/></g><g clip-path="url(#4ecf5f0c25)"><path fill="#ffffff" d="M 6.242188 4.707031 L 23.929688 4.707031 C 25.253906 4.707031 26.335938 5.785156 26.335938 7.09375 L 26.335938 17.707031 C 26.335938 19.019531 25.253906 20.09375 23.929688 20.09375 L 11.667969 20.09375 C 9.96875 20.09375 8.507812 20.609375 7.1875 21.636719 L 3.835938 24.300781 L 3.835938 7.09375 C 3.835938 5.785156 4.921875 4.707031 6.242188 4.707031 Z M 13.414062 10.132812 C 13.414062 10.460938 13.175781 10.742188 12.800781 10.742188 C 12.46875 10.742188 12.234375 10.460938 12.234375 10.132812 C 12.234375 8.589844 13.507812 7.28125 15.0625 7.28125 C 16.667969 7.28125 17.941406 8.589844 17.941406 10.132812 C 17.941406 11.253906 17.28125 12.238281 16.242188 12.703125 C 15.914062 12.890625 15.675781 13.21875 15.675781 13.640625 L 15.675781 14.0625 C 15.675781 14.386719 15.394531 14.667969 15.0625 14.667969 C 14.734375 14.667969 14.496094 14.386719 14.496094 14.0625 L 14.496094 13.640625 C 14.496094 12.75 14.96875 12.003906 15.769531 11.628906 C 16.382812 11.347656 16.761719 10.789062 16.761719 10.132812 C 16.761719 9.246094 16.007812 8.496094 15.0625 8.496094 C 14.167969 8.496094 13.414062 9.246094 13.414062 10.132812 Z M 15.0625 15.699219 C 15.441406 15.699219 15.722656 15.976562 15.722656 16.351562 C 15.722656 16.726562 15.441406 17.007812 15.0625 17.007812 C 14.734375 17.007812 14.449219 16.726562 14.449219 16.351562 C 14.449219 15.976562 14.734375 15.699219 15.0625 15.699219 Z M 15.0625 15.699219 " fill-opacity="1" fill-rule="evenodd"/></g></svg>