<svg xmlns="http://www.w3.org/2000/svg" xmlns:xlink="http://www.w3.org/1999/xlink" width="40" zoomAndPan="magnify" viewBox="0 0 30 30.000001" height="40" preserveAspectRatio="xMidYMid meet" version="1.0"><defs><clipPath id="68b4b5568f"><path d="M 5.636719 5.152344 L 24.507812 5.152344 L 24.507812 24.023438 L 5.636719 24.023438 Z M 5.636719 5.152344 " clip-rule="nonzero"/></clipPath></defs><g clip-path="url(#68b4b5568f)"><path fill="#000000" d="M 21.046875 12.074219 C 22.957031 12.074219 24.507812 10.519531 24.507812 8.613281 C 24.507812 6.707031 22.957031 5.152344 21.046875 5.152344 C 19.140625 5.152344 17.589844 6.707031 17.589844 8.613281 C 17.589844 8.945312 17.636719 9.265625 17.726562 9.570312 L 11.851562 12.507812 C 11.210938 11.648438 10.203125 11.128906 9.097656 11.128906 C 7.1875 11.128906 5.636719 12.679688 5.636719 14.589844 C 5.636719 16.496094 7.1875 18.046875 9.097656 18.046875 C 10.207031 18.046875 11.210938 17.527344 11.851562 16.667969 L 17.726562 19.605469 C 17.636719 19.910156 17.589844 20.230469 17.589844 20.566406 C 17.589844 22.472656 19.140625 24.023438 21.046875 24.023438 C 22.957031 24.023438 24.507812 22.472656 24.507812 20.566406 C 24.507812 18.65625 22.957031 17.105469 21.046875 17.105469 C 19.921875 17.105469 18.925781 17.648438 18.292969 18.484375 L 12.414062 15.542969 C 12.503906 15.234375 12.554688 14.917969 12.554688 14.589844 C 12.554688 14.257812 12.503906 13.941406 12.414062 13.632812 L 18.292969 10.695312 C 18.925781 11.53125 19.921875 12.074219 21.046875 12.074219 Z M 21.046875 18.363281 C 22.261719 18.363281 23.25 19.351562 23.25 20.566406 C 23.25 21.777344 22.261719 22.765625 21.046875 22.765625 C 19.835938 22.765625 18.847656 21.777344 18.847656 20.566406 C 18.847656 19.351562 19.835938 18.363281 21.046875 18.363281 Z M 9.097656 16.789062 C 7.882812 16.789062 6.894531 15.800781 6.894531 14.589844 C 6.894531 13.375 7.882812 12.386719 9.097656 12.386719 C 9.9375 12.386719 10.691406 12.851562 11.066406 13.609375 C 11.21875 13.914062 11.296875 14.242188 11.296875 14.589844 C 11.296875 14.933594 11.21875 15.261719 11.0625 15.574219 C 10.691406 16.324219 9.9375 16.789062 9.097656 16.789062 Z M 21.046875 6.410156 C 22.261719 6.410156 23.25 7.398438 23.25 8.613281 C 23.25 9.828125 22.261719 10.816406 21.046875 10.816406 C 19.835938 10.816406 18.847656 9.828125 18.847656 8.613281 C 18.847656 7.398438 19.835938 6.410156 21.046875 6.410156 Z M 21.046875 6.410156 " fill-opacity="1" fill-rule="nonzero"/></g></svg>