<svg xmlns="http://www.w3.org/2000/svg" xmlns:xlink="http://www.w3.org/1999/xlink" width="40" zoomAndPan="magnify" viewBox="0 0 30 30.000001" height="40" preserveAspectRatio="xMidYMid meet" version="1.0"><defs><clipPath id="19618a97e1"><path d="M 6.765625 9.339844 L 23.453125 9.339844 L 23.453125 27.285156 L 6.765625 27.285156 Z M 6.765625 9.339844 " clip-rule="nonzero"/></clipPath></defs><g clip-path="url(#19618a97e1)"><path fill="#ffffff" d="M 17.390625 24.320312 C 16.921875 24.71875 16.402344 25.09375 15.828125 25.441406 C 15.382812 25.710938 14.820312 25.707031 14.363281 25.429688 C 13.8125 25.09375 13.296875 24.726562 12.816406 24.320312 C 12.121094 23.734375 11.5 23.074219 10.957031 22.34375 C 10.976562 22.234375 11 22.125 11.027344 22.015625 C 11.28125 20.945312 12.199219 20.15625 13.292969 20.042969 C 13.328125 20.039062 13.355469 20.039062 13.390625 20.035156 C 13.871094 20.453125 14.453125 20.722656 15.109375 20.722656 C 15.765625 20.722656 16.34375 20.453125 16.828125 20.035156 C 16.859375 20.039062 16.890625 20.039062 16.925781 20.042969 C 18.019531 20.15625 18.9375 20.945312 19.191406 22.015625 C 19.214844 22.121094 19.242188 22.226562 19.261719 22.335938 C 18.75 23.023438 18.132812 23.695312 17.390625 24.320312 Z M 15.109375 13.792969 C 16.386719 13.792969 17.421875 14.742188 17.421875 16.019531 C 17.421875 17.292969 16.386719 19.097656 15.109375 19.097656 C 13.832031 19.097656 12.796875 17.292969 12.796875 16.019531 C 12.796875 14.742188 13.832031 13.792969 15.109375 13.792969 Z M 22.691406 13.285156 C 20.769531 13.140625 19.101562 12.355469 17.738281 10.945312 C 16.710938 9.886719 15.828125 9.351562 15.109375 9.351562 C 14.390625 9.351562 13.503906 9.886719 12.480469 10.945312 C 11.113281 12.355469 9.445312 13.140625 7.527344 13.285156 C 7.097656 13.316406 6.765625 13.671875 6.765625 14.105469 L 6.765625 15.550781 C 6.765625 15.566406 6.765625 15.578125 6.765625 15.589844 C 6.777344 15.824219 6.90625 17.921875 7.941406 20.363281 C 9.125 23.136719 10.996094 25.3125 13.507812 26.835938 C 14.003906 27.136719 14.558594 27.285156 15.113281 27.285156 C 15.65625 27.285156 16.203125 27.140625 16.683594 26.847656 C 22.972656 23.039062 23.421875 16.328125 23.453125 15.578125 L 23.453125 14.105469 C 23.453125 13.671875 23.121094 13.316406 22.691406 13.285156 " fill-opacity="1" fill-rule="nonzero"/></g><path fill="#ffffff" d="M 10.910156 8.222656 C 10.910156 5.910156 12.792969 4.027344 15.109375 4.027344 C 17.425781 4.027344 19.308594 5.910156 19.308594 8.222656 L 19.308594 10.171875 C 19.910156 10.703125 20.566406 11.089844 21.285156 11.335938 L 21.285156 8.222656 C 21.285156 4.820312 18.515625 2.054688 15.109375 2.054688 C 11.703125 2.054688 8.933594 4.820312 8.933594 8.222656 L 8.933594 11.335938 C 9.652344 11.089844 10.308594 10.703125 10.910156 10.171875 L 10.910156 8.222656 " fill-opacity="1" fill-rule="nonzero"/></svg>