<svg xmlns="http://www.w3.org/2000/svg" xmlns:xlink="http://www.w3.org/1999/xlink" width="40" zoomAndPan="magnify" viewBox="0 0 30 30.000001" height="40" preserveAspectRatio="xMidYMid meet" version="1.0"><defs><clipPath id="1bc141abf7"><path d="M 5.640625 2.902344 L 24.511719 2.902344 L 24.511719 26.128906 L 5.640625 26.128906 Z M 5.640625 2.902344 " clip-rule="nonzero"/></clipPath></defs><g clip-path="url(#1bc141abf7)"><path fill="#ffffff" d="M 17.433594 2.90625 L 7.996094 2.90625 C 6.699219 2.90625 5.652344 3.949219 5.652344 5.226562 L 5.640625 23.804688 C 5.640625 25.082031 6.6875 26.125 7.984375 26.125 L 22.152344 26.125 C 23.449219 26.125 24.511719 25.082031 24.511719 23.804688 L 24.511719 9.871094 Z M 22.152344 23.804688 L 7.996094 23.804688 L 7.996094 5.226562 L 16.253906 5.226562 L 16.253906 11.03125 L 22.152344 11.03125 Z M 11.324219 15.734375 L 9.648438 17.371094 L 13.824219 21.480469 L 20.5 14.910156 L 18.835938 13.273438 L 13.835938 18.195312 Z M 11.324219 15.734375 " fill-opacity="1" fill-rule="nonzero"/></g></svg>